<svg width="131" height="20" viewBox="0 0 131 20" fill="none" xmlns="http://www.w3.org/2000/svg">
<path d="M86.8812 1.50039C87.0692 1.52439 87.3092 2.08039 87.2562 2.35739C87.0962 3.61839 85.8912 4.50139 84.5532 4.42639L83.6162 4.35039C83.6432 4.35039 83.6432 4.32539 83.6432 4.30039C82.4122 4.45039 81.1532 4.57739 79.9232 4.77939C78.6922 4.98139 78.3172 5.68739 78.6112 6.89839C78.8252 7.80639 79.4942 8.15939 80.6452 7.90839C81.6892 7.68039 82.7062 7.37839 83.7232 7.17539C84.1252 7.10039 84.8472 7.15039 84.9542 7.35239C85.1952 7.85739 85.3292 8.51239 85.1952 9.06839C85.1422 9.34539 84.4732 9.67339 84.0712 9.72339C82.9742 9.85039 81.8232 9.85039 80.7262 9.90039C79.3342 9.97639 78.8792 10.5304 79.2262 11.8174C79.4942 12.7514 79.8162 13.6844 80.1362 14.5934C80.5122 15.6534 81.2882 16.0814 82.5192 15.9804C83.7492 15.8804 84.9812 15.8044 86.1852 15.6524C87.7382 15.4764 88.3262 15.9554 88.1932 17.4694C88.0862 18.7054 87.6572 19.1344 86.3992 19.0584C85.2175 18.9827 84.0445 18.8054 82.8932 18.5284C80.8862 18.0744 78.9332 17.4944 76.9252 16.9894C76.1222 16.7874 76.0152 16.3094 76.1222 15.6274C76.2822 14.6934 76.3902 13.7604 76.6042 12.8524C76.7912 11.9694 76.8182 11.2124 75.9882 10.5064C75.4532 10.0264 76.0152 9.57239 76.3632 9.24439C77.5942 8.08439 77.5682 6.64639 76.2562 5.61139C75.4532 5.00639 75.5332 4.52639 76.4432 4.12339C78.4232 3.21539 80.4042 2.25639 82.4122 1.34839C83.9102 0.667391 85.4092 1.22239 86.8822 1.49939L86.8812 1.50039ZM11.9762 1.35839C12.3082 1.96839 11.5612 2.29839 11.0092 2.55239C10.0962 3.00939 9.18423 3.44239 8.32723 3.94939C6.83423 4.83939 5.36923 5.70239 4.42923 7.20139C3.32423 8.98039 2.74323 10.7844 3.29623 12.8164C3.35123 13.0204 3.37923 13.2234 3.51723 13.4014C4.92723 15.4334 6.69723 16.9834 9.46023 17.2114C10.4562 17.2884 11.4502 17.4154 12.4182 17.5674C12.6952 17.6184 13.1922 17.9484 13.1652 18.0504C13.0822 18.3554 12.8332 18.7364 12.5292 18.8634C12.1972 19.0414 11.6992 19.0164 11.4232 19.0664C6.75124 18.7864 3.18523 16.9834 0.891234 13.4014C0.0612342 12.1564 -0.214766 10.7584 0.172234 9.13239C0.808234 6.46539 2.32823 4.33039 4.15223 2.34939C4.73323 1.71439 5.50723 1.38339 6.53023 1.40939C7.80223 1.43439 9.07323 1.10439 10.3452 1.02839C10.8982 1.00239 11.8382 1.05339 11.9762 1.35839ZM61.8592 1.02239C62.0812 1.58739 62.3032 1.99739 62.3592 2.40839C62.5812 4.43539 62.7472 6.48839 62.8862 8.51639C62.9142 9.00439 63.0802 9.15839 63.6362 9.20939C65.0502 9.28639 66.4932 9.36339 67.8812 9.64639C68.7692 9.82639 68.9912 9.54339 69.0192 8.85039C69.0742 7.20739 69.0742 5.54039 69.2132 3.89639C69.2682 2.99839 69.5182 2.12639 69.6852 1.22739H70.2122C70.3232 1.68939 70.4622 2.12639 70.5172 2.58739C70.7392 4.97439 70.9062 7.36139 71.1002 9.67139C71.7942 9.92839 72.4322 10.1594 73.0702 10.3904V10.7244C72.5152 10.9044 71.9882 11.0574 71.2942 11.2634C71.3782 12.1874 71.5442 13.1884 71.5722 14.1894C71.6002 15.3954 71.5722 16.6014 71.4892 17.7824C71.4332 18.5774 70.9062 19.0394 70.0462 19.0654C69.1022 19.0914 68.6302 18.7054 68.6022 17.7314C68.5472 15.9084 68.6022 14.0864 68.6022 12.2894V11.4684C66.9102 11.6994 65.2452 11.9304 63.6912 12.1614V16.0624C63.6912 16.5504 63.6912 17.0384 63.6352 17.5004C63.4692 18.6034 62.8852 19.0654 61.7752 19.0404C60.5552 19.0144 60.1382 18.6544 60.0002 17.4484C59.7502 14.7784 60.0272 12.1354 60.4162 9.49239C60.7212 7.56739 60.7212 5.59039 60.8602 3.64039C60.8882 2.81939 60.8602 1.92039 61.8592 1.02239ZM52.7922 0.400391C53.5352 0.529391 54.2782 0.606391 54.9682 0.786391C55.2072 0.838391 55.5782 1.19939 55.5252 1.32839C55.4452 1.61139 55.2072 1.89539 54.9422 2.04939C54.5442 2.25639 54.0662 2.33339 53.6152 2.46239C49.4232 3.64739 47.3802 6.40539 47.0352 10.4014C46.7432 13.5194 50.0862 17.0514 52.9252 17.2314C53.8802 17.2834 54.8352 17.4114 55.7642 17.5924C56.0562 17.6444 56.3212 17.9274 56.6142 18.1084C56.4012 18.3914 56.1892 18.9324 55.9502 18.9584C54.9952 19.0614 54.0132 19.1384 53.0842 18.9584C49.5552 18.2884 46.7702 16.4584 44.8862 13.4424C44.0102 12.0244 44.0102 10.4014 44.2222 8.85439C44.5142 6.84439 45.2842 4.93639 46.7172 3.41539C47.7512 2.28139 48.9452 1.22539 50.5372 0.812391C51.2272 0.580391 52.0232 0.530391 52.7922 0.400391ZM126.552 2.76539C127.136 4.31555 127.703 5.87163 128.255 7.43339C128.681 8.64539 129.027 9.88339 129.453 11.0954C129.533 11.3274 129.719 11.5854 129.932 11.7144C130.411 11.9974 130.704 12.2554 130.252 12.7714C130.194 12.8727 130.175 12.9919 130.198 13.1064C130.411 14.2924 130.624 15.4794 130.863 16.6654C130.89 16.8454 131.023 17.0254 130.997 17.1814C130.863 17.6194 130.651 18.0314 130.491 18.4444C130.198 18.1864 129.799 17.9804 129.639 17.6704C128.967 16.4285 128.337 15.1644 127.749 13.8804C127.51 13.3384 127.404 13.0034 126.579 13.1064C125.514 13.2614 124.423 13.0804 123.332 13.0294C121.655 12.9514 120.458 13.4934 119.819 15.1434C119.526 15.9434 118.941 16.6654 118.409 17.3614C118.249 17.5674 117.743 17.7484 117.583 17.6454C117.343 17.4904 117.131 17.0524 117.184 16.8194C117.477 15.7114 117.929 14.6534 118.249 13.5444C118.913 11.2045 119.551 8.85774 120.165 6.50439C120.458 5.39639 120.564 4.26139 121.389 3.33339C122.4 2.24939 123.651 1.78539 125.381 1.65639C125.967 1.55339 126.313 2.12039 126.552 2.76639V2.76539ZM93.2782 1.02239C93.4612 1.20039 93.7492 1.35239 93.8022 1.58239C94.0122 2.70039 94.1692 3.81939 94.3002 4.93839C94.5882 7.48039 94.8242 10.0234 95.1122 12.5664C95.1642 12.9984 95.2952 13.4304 95.4262 13.8624C95.8192 14.9824 96.9462 15.4644 98.0992 15.0324C98.4922 14.8804 98.9112 14.7024 99.3312 14.7024C100.011 14.7024 100.484 15.0074 100.484 15.7954C100.484 16.3804 100.588 16.9654 100.694 17.5494C100.824 18.1344 100.457 18.4904 99.4092 18.4394C99.0162 18.3384 98.3872 18.0834 97.7322 17.9564C96.0292 17.6514 94.3002 17.3964 92.5972 17.1174C91.9412 16.9904 91.2872 16.8374 90.6312 16.6344C90.4482 16.5844 90.1862 16.3294 90.1862 16.1764C90.1862 16.0244 90.4222 15.7954 90.6062 15.6934C90.9982 15.4644 91.6532 15.3634 91.8102 15.0334C92.0992 14.4224 92.2302 13.6844 92.2562 12.9734C92.3352 11.0154 92.3082 9.08339 92.3612 7.12439C92.3872 5.92939 92.3872 4.73439 92.4392 3.53939C92.4662 2.85339 92.5972 2.19239 92.7542 1.53039C92.8062 1.32739 93.0942 1.17439 93.2782 1.02239ZM107.163 1.02239C107.345 1.04739 107.656 1.32739 107.683 1.53139C107.864 2.47139 107.994 3.41339 108.073 4.35439C108.358 7.27939 108.618 10.2044 108.903 13.1284C109.06 14.5784 109.527 14.9344 111.346 15.0364C111.944 15.0614 112.567 15.0614 113.113 15.2394C113.996 15.4944 114.802 17.1474 114.464 17.9614C114.36 18.1904 113.892 18.4444 113.607 18.4444C110.593 18.3944 107.76 17.5284 104.902 16.7404C104.876 16.6904 104.824 16.6134 104.668 16.4864C104.824 16.2064 104.902 15.8764 105.11 15.6724C106.123 14.7314 106.28 13.4594 106.331 12.2124C106.409 9.13539 106.357 6.03239 106.357 2.95539C106.357 2.44639 106.461 1.93839 106.617 1.48039C106.669 1.27639 106.981 1.02239 107.163 1.02239ZM36.5482 2.93839C37.3276 5.02589 38.0674 7.12793 38.7672 9.24339C39.1142 10.3034 39.1942 11.4394 40.1832 12.2154C39.7562 13.1454 40.4512 13.9724 40.5042 14.8764C40.5312 15.5744 40.7182 16.2464 40.7982 16.9174C40.8252 17.2274 40.8252 17.5894 40.7452 17.8994C40.6912 18.1324 40.4512 18.4164 40.2632 18.4424C40.0502 18.4684 39.7292 18.2614 39.6222 18.0544L39.0482 16.9464C38.5722 16.0204 38.1142 15.0864 37.7512 14.1264C37.4302 13.3264 37.2162 12.9644 36.2012 13.1454C34.4632 13.4814 32.6712 13.5584 30.9082 13.8434C30.5602 13.8944 30.1862 14.3334 29.9722 14.6694C29.4372 15.4964 29.0102 16.4264 28.4482 17.2274C28.2612 17.4864 27.7002 17.7444 27.4332 17.6674C26.8982 17.5124 26.9252 17.0474 27.1122 16.5304C27.6202 15.1344 28.1542 13.7404 28.5552 12.3184C29.1432 10.2774 29.5712 8.18439 30.1322 6.11739C30.3732 5.21239 30.5872 4.30739 31.0152 3.45539C31.7362 1.90539 33.2872 1.67239 34.9172 1.67239C35.9602 1.49239 36.2812 2.21539 36.5472 2.93839H36.5482ZM23.2242 2.46339C23.8972 2.61439 24.5692 3.39739 24.8922 4.02839C25.8602 5.92139 26.5592 7.91539 26.2632 10.0864C25.9672 12.2324 24.9992 14.0504 23.3322 15.4894C22.1492 16.4994 20.5892 16.5994 19.0562 16.5744C17.3892 16.5744 16.3142 15.7924 15.3462 14.5294C12.9522 11.3234 13.6512 6.98139 15.5882 4.22939C15.6142 4.17939 15.7482 4.17939 16.0982 4.05339C15.9912 4.65939 15.9102 5.13939 15.8032 5.61839C15.3192 7.56239 15.2382 9.48139 16.5022 11.2484C17.5772 12.7884 19.7292 13.2424 21.3962 12.2834C23.0902 11.2984 24.0042 9.45539 23.6552 7.61339C23.4932 6.80539 23.3592 5.97239 23.0362 5.21439C22.3102 3.57439 20.4282 3.04439 18.8142 3.95239C18.4922 4.07839 18.1692 4.20539 17.8462 4.35639C17.6852 3.52339 18.6262 2.38639 19.5672 2.33639C20.7772 2.26139 22.0682 2.18539 23.2242 2.46339ZM33.5272 8.59739C32.9932 9.21739 32.5922 9.91539 32.0572 10.7424C33.6612 11.0004 35.0772 11.2074 36.7352 11.4654C36.0932 10.4054 35.6122 9.50239 35.0252 8.67539C34.6232 8.13239 33.9822 8.02939 33.5272 8.59739ZM123.465 7.30439C123.039 8.43839 122.666 9.57439 122.241 10.7854C123.758 10.9914 125.168 11.1984 126.898 11.4554C126.1 9.85739 125.488 8.46539 124.742 7.12339C124.37 6.45339 123.731 6.58239 123.465 7.30339V7.30439Z" fill="#121515"/>
</svg>
